<svg width="60" height="60" viewBox="0 0 60 60" fill="none" xmlns="http://www.w3.org/2000/svg">
<path d="M35.625 52.5H24.375C23.3807 52.499 22.4275 52.1036 21.7244 51.4006C21.0214 50.6975 20.626 49.7443 20.625 48.75V39.375H11.25C10.2557 39.374 9.30249 38.9786 8.59945 38.2756C7.8964 37.5725 7.50099 36.6193 7.5 35.625V24.375C7.50099 23.3807 7.8964 22.4275 8.59945 21.7244C9.30249 21.0214 10.2557 20.626 11.25 20.625H20.625V11.25C20.626 10.2557 21.0214 9.30249 21.7244 8.59945C22.4275 7.8964 23.3807 7.50099 24.375 7.5H35.625C36.6193 7.50099 37.5725 7.8964 38.2756 8.59945C38.9786 9.30249 39.374 10.2557 39.375 11.25V20.625H48.75C49.7443 20.626 50.6975 21.0214 51.4006 21.7244C52.1036 22.4275 52.499 23.3807 52.5 24.375V35.625C52.4985 36.6191 52.1029 37.5721 51.4 38.275C50.6971 38.9779 49.7441 39.3735 48.75 39.375H39.375V48.75C39.3735 49.7441 38.9779 50.6971 38.275 51.4C37.5721 52.1029 36.6191 52.4985 35.625 52.5V52.5ZM11.25 24.375V35.625H24.375V48.75H35.625V35.625H48.75V24.375H35.625V11.25H24.375V24.375H11.25Z" fill="#FBFBFA"/>
</svg>
