<svg width="80" height="80" viewBox="0 0 80 80" fill="none" xmlns="http://www.w3.org/2000/svg">
<path d="M40.3333 61.8333L40 62.1667L39.6333 61.8333C23.8 47.4667 13.3333 37.9667 13.3333 28.3333C13.3333 21.6667 18.3333 16.6667 25 16.6667C30.1333 16.6667 35.1333 20 36.9 24.5333H43.1C44.8667 20 49.8667 16.6667 55 16.6667C61.6667 16.6667 66.6667 21.6667 66.6667 28.3333C66.6667 37.9667 56.2 47.4667 40.3333 61.8333ZM55 10C49.2 10 43.6333 12.7 40 16.9333C36.3667 12.7 30.8 10 25 10C14.7333 10 6.66666 18.0333 6.66666 28.3333C6.66666 40.9 18 51.2 35.1667 66.7667L40 71.1667L44.8333 66.7667C62 51.2 73.3333 40.9 73.3333 28.3333C73.3333 18.0333 65.2667 10 55 10Z" fill="#FBFBFA"/>
</svg>
